<svg width="492" height="492" viewBox="0 0 492 492" fill="none" xmlns="http://www.w3.org/2000/svg">
<circle cx="246" cy="246" r="241" fill="#1F2131" stroke="#1F2131" stroke-width="10"/>
<path d="M222.746 132.652C225.867 129.346 228.112 126.957 228.112 121.522C228.112 116.087 225.872 113.697 222.746 110.391C219.08 106.479 214.529 101.608 214.529 92.5211C214.529 83.434 219.08 78.6063 222.746 74.6512C225.867 71.3454 228.112 68.9556 228.112 63.5206C228.112 59.9115 232.664 57 238.295 57C243.931 57 248.478 59.9146 248.478 63.5206C248.478 72.5642 243.926 77.4354 240.261 81.3905C237.139 84.6963 234.894 87.0862 234.894 92.5211C234.894 97.9561 237.135 100.346 240.261 103.652C243.926 107.564 248.478 112.434 248.478 121.522C248.478 130.565 243.926 135.436 240.261 139.349C237.139 142.655 234.894 145.044 234.894 150.479C234.894 154.088 230.343 157 224.711 157C219.075 157 214.529 154.085 214.529 150.479C214.529 141.436 219.08 136.565 222.746 132.652ZM175.487 133.826C178.542 130.911 180.579 128.955 180.579 124.391C180.579 119.827 178.542 117.913 175.487 114.956C171.684 111.304 167 106.783 167 98.3028C167 89.8228 171.684 85.2583 175.487 81.6496C178.542 78.6925 180.579 76.7788 180.579 72.2146C180.579 68.6056 185.13 65.694 190.762 65.694C196.398 65.694 200.944 68.6086 200.944 72.2146C200.944 80.6946 196.26 85.2591 192.457 88.8679C189.402 91.8249 187.366 93.7386 187.366 98.3028C187.366 102.867 189.402 104.781 192.457 107.738C196.26 111.389 200.944 115.911 200.944 124.391C200.944 132.871 196.26 137.39 192.457 141.044C189.402 143.959 187.366 145.915 187.366 150.479C187.366 154.088 182.814 157 177.183 157C171.547 157 167 154.085 167 150.479C167 141.999 171.684 137.477 175.487 133.826ZM270.543 133.826C273.598 130.911 275.634 128.955 275.634 124.391C275.634 119.827 273.598 117.913 270.543 114.956C266.74 111.304 262.056 106.783 262.056 98.3028C262.056 89.8228 266.74 85.2583 270.543 81.6496C273.598 78.6925 275.634 76.7788 275.634 72.2146C275.634 68.6056 280.186 65.694 285.817 65.694C291.453 65.694 296 68.6086 296 72.2146C296 80.6946 291.316 85.2591 287.513 88.8679C284.458 91.8249 282.421 93.7386 282.421 98.3028C282.421 102.867 284.458 104.781 287.513 107.738C291.316 111.389 296 115.911 296 124.391C296 132.871 291.316 137.39 287.513 141.044C284.458 143.959 282.421 145.915 282.421 150.479C282.421 154.088 277.87 157 272.238 157C266.602 157 262.056 154.085 262.056 150.479C262.056 141.999 266.74 137.477 270.543 133.826Z" fill="white" stroke="#1F2131" stroke-width="5"/>
<path d="M376.3 196.651H367.001V192.96C367.001 185.44 360.849 179.289 353.33 179.289H107.773C100.253 179.289 94.1021 185.441 94.1021 192.96V239.034C94.1021 276.768 124.731 355.25 162.465 355.25H298.641C312.246 355.25 324.892 345.064 335.554 330.229L335.692 330.367C352.85 313.209 353.193 312.866 376.302 312.866C408.367 312.866 434.413 286.82 434.413 254.756C434.408 222.696 408.295 196.65 376.299 196.65L376.3 196.651ZM376.3 292.361C367.278 292.361 360.505 292.705 354.831 293.658C362.49 273.969 367.001 253.531 367.001 239.039V217.161H376.3C397.015 217.161 413.9 234.046 413.9 254.761C413.9 275.476 397.015 292.361 376.3 292.361ZM374.118 363.041C374.118 378.148 361.882 390.384 346.776 390.384H114.343C99.2357 390.384 87 378.148 87 363.041C87 359.284 90.0757 356.203 93.8382 356.203H367.289C371.042 356.203 374.122 359.279 374.122 363.041H374.118Z" fill="white" stroke="#1F2131" stroke-width="6"/>
<path d="M238.061 291.941C236.535 298.134 235.731 305.296 236.224 314.35C229.189 311.608 224.247 306.333 221.155 299.575C217.381 291.327 216.389 280.866 218.043 270.42C221.219 250.372 233.605 232.417 251.642 229.86C252.85 240.47 252.461 248.429 251.266 254.926C249.95 262.084 247.631 267.631 245.116 273.262C244.885 273.781 244.651 274.301 244.416 274.824C242.112 279.951 239.684 285.355 238.061 291.941Z" fill="white" stroke="#1F2131" stroke-width="7"/>
<path d="M264.551 256.791C265.856 249.782 266.321 241.543 265.345 231.154C272.562 233.81 277.621 239.095 280.79 245.907C284.657 254.223 285.682 264.827 284.006 275.401C280.783 295.727 268.165 313.777 249.866 315.797C249.172 307.053 249.88 300.369 251.262 294.685C252.683 288.835 254.829 283.964 257.142 278.712C257.377 278.177 257.615 277.638 257.854 277.093C260.416 271.245 263.036 264.922 264.551 256.791Z" fill="white" stroke="#1F2131" stroke-width="7"/>
<path d="M208.516 269.454C207.396 277.503 207.804 286.085 209.753 294.054C198.011 293.346 185.459 288.355 175.927 280.496C166.05 272.353 159.826 261.519 160.561 249.616C174.371 250.842 183.27 253.848 190.188 257.439C193.953 259.394 197.2 261.557 200.43 263.823C201.155 264.332 201.885 264.85 202.623 265.374C204.525 266.724 206.476 268.109 208.516 269.454Z" fill="white" stroke="#1F2131" stroke-width="7"/>
<path d="M191.843 223.5C203.614 223.5 216.231 227.716 225.393 234.065C219.521 240.287 214.947 247.883 211.924 255.674C211.261 255.206 210.592 254.73 209.916 254.249C205.459 251.076 200.667 247.665 194.933 244.782C187.382 240.986 178.02 237.948 164.665 236.567C170.38 227.395 180.437 223.5 191.843 223.5Z" fill="white" stroke="#1F2131" stroke-width="7"/>
</svg>
